<?xml version="1.0" encoding="utf-8"?>
<!-- Generator: Adobe Illustrator 26.3.1, SVG Export Plug-In . SVG Version: 6.00 Build 0)  -->
<svg version="1.1" xmlns="http://www.w3.org/2000/svg" xmlns:xlink="http://www.w3.org/1999/xlink" x="0px" y="0px"
	 viewBox="-7 9 48 48" enable-background="new -7 9 48 48" xml:space="preserve">
<g id="guide" display="none">
	<g id="Layer_8" display="inline">
		<g id="guides">
			<rect x="-7" y="9" fill="#CEE4EA" width="48" height="48"/>
			<rect x="-5" y="11" fill="#E9F2F4" width="44" height="44"/>
			<rect x="-3" y="13" fill="#FFFFFF" width="40" height="40"/>
		</g>
	</g>
</g>
<g id="User">
	<g>
		<path fill-rule="evenodd" clip-rule="evenodd" fill="#034EA2" d="M17,13c11.046,0,20,8.954,20,20c0,11.046-8.954,20-20,20
			C5.954,53-3,44.046-3,33C-3,21.954,5.954,13,17,13z"/>
	</g>
</g>
<g id="Layer_5">
	<g>
		<g>
			<path fill="#FFFFFF" d="M17,21.351c-4.516,0-8.191,3.675-8.191,8.191c0,1.526,0.423,3.015,1.222,4.307l6.502,10.478
				c0.125,0.201,0.344,0.323,0.58,0.323c0.002,0,0.003,0,0.005,0c0.238-0.002,0.458-0.128,0.58-0.332l6.337-10.58
				c0.756-1.265,1.155-2.716,1.155-4.196C25.191,25.025,21.516,21.351,17,21.351z M22.864,33.037l-5.761,9.618l-5.911-9.526
				c-0.666-1.076-1.027-2.316-1.027-3.588c0-3.764,3.071-6.835,6.835-6.835s6.831,3.071,6.831,6.835
				C23.831,30.776,23.493,31.985,22.864,33.037z M17,25.446c-2.258,0-4.095,1.837-4.095,4.096c0,2.244,1.807,4.095,4.095,4.095
				c2.317,0,4.095-1.876,4.095-4.095C21.095,27.283,19.258,25.446,17,25.446z M17,32.281c-1.514,0-2.739-1.23-2.739-2.739
				c0-1.505,1.234-2.739,2.739-2.739s2.735,1.234,2.735,2.739C19.735,31.029,18.537,32.281,17,32.281z"/>
		</g>
	</g>
</g>
<g id="Layer_4" display="none">
	<g display="inline">
		<g>
			<path fill="#FFFFFF" d="M14.007,27.664h-3.713v1.558h3.713V27.664z M14.007,31.208h-3.713v1.558h3.713V31.208z M14.007,34.752
				h-3.713v1.558h3.713V34.752z M10.294,39.854h3.713v-1.558h-3.713V39.854z M17.803,41.929V29.195l8.141-0.009v8.59h1.558v-9.37
				c0-0.425-0.355-0.779-0.78-0.779l-9.7,0.011c-0.43,0-0.778,0.349-0.778,0.779v13.512H8.056v-15.42l8.189-2.202v1.769h1.558
				v-2.786c0-0.504-0.494-0.883-0.982-0.752L7.074,25.16c-0.34,0.091-0.577,0.4-0.577,0.752v16.017H4.846v1.558h24.308v-1.558
				H17.803z M25.944,40.63h1.558v-1.452h-1.558V40.63z M23.706,31.208h-3.713v1.558h3.713V31.208z M23.706,34.752h-3.713v1.558
				h3.713V34.752z M19.993,39.854h3.713v-1.558h-3.713V39.854z"/>
		</g>
	</g>
</g>
</svg>
