<?xml version="1.0" encoding="utf-8"?>
<!-- Generator: Adobe Illustrator 26.3.1, SVG Export Plug-In . SVG Version: 6.00 Build 0)  -->
<svg version="1.1" xmlns="http://www.w3.org/2000/svg" xmlns:xlink="http://www.w3.org/1999/xlink" x="0px" y="0px"
	 viewBox="-7 9 48 48" enable-background="new -7 9 48 48" xml:space="preserve">
<g id="guide" display="none">
	<g id="Layer_8" display="inline">
		<g id="guides">
			<rect x="-7" y="9" fill="#CEE4EA" width="48" height="48"/>
			<rect x="-5" y="11" fill="#E9F2F4" width="44" height="44"/>
			<rect x="-3" y="13" fill="#FFFFFF" width="40" height="40"/>
		</g>
	</g>
</g>
<g id="User">
	<g>
		<path fill-rule="evenodd" clip-rule="evenodd" fill="#034EA2" d="M17,13c11.046,0,20,8.954,20,20c0,11.046-8.954,20-20,20
			C5.954,53-3,44.046-3,33C-3,21.954,5.954,13,17,13z"/>
	</g>
</g>
<g id="Layer_5">
</g>
<g id="Layer_4">
</g>
<g id="Layer_6">
	<g>
		<g>
			<path fill="#FFFFFF" d="M22.016,32.477c-0.32-0.093-1.251-0.351-1.29-0.361c-0.354-0.098-0.73,0.074-0.857,0.391l-1.755,4.393
				l-0.413-2.608l0.79-1.249c0.125-0.197,0.125-0.439,0-0.636c-0.125-0.197-0.355-0.318-0.604-0.318h-1.776
				c-0.249,0-0.479,0.122-0.604,0.318c-0.125,0.197-0.125,0.44,0,0.636l0.79,1.249l-0.406,2.625l-1.762-4.411
				c-0.127-0.317-0.503-0.489-0.857-0.391c-0.039,0.011-0.97,0.268-1.29,0.361c-1.755,0.512-2.933,2.001-2.933,3.706v6.469
				c0,0.351,0.312,0.636,0.697,0.636h14.505c0.385,0,0.697-0.285,0.697-0.636v-6.469C24.95,34.478,23.771,32.989,22.016,32.477z
				 M10.445,42.015L10.445,42.015v-5.833c0-1.148,0.789-2.151,1.964-2.494c0.135-0.039,0.391-0.111,0.638-0.18l3.298,8.258
				c0.039,0.097,0.102,0.182,0.181,0.249H10.445z M23.555,42.015h-6.081c0.079-0.067,0.142-0.151,0.181-0.249l3.298-8.258
				c0.247,0.069,0.503,0.141,0.638,0.18c1.175,0.343,1.964,1.346,1.964,2.494V42.015z M17,30.603c2.384,0,4.323-1.77,4.323-3.945
				c0-2.175-1.94-3.945-4.323-3.945c-2.384,0-4.323,1.77-4.323,3.945C12.677,28.833,14.616,30.603,17,30.603z M17,23.985
				c1.615,0,2.929,1.199,2.929,2.672c0,1.474-1.314,2.673-2.929,2.673s-2.929-1.199-2.929-2.673
				C14.071,25.184,15.385,23.985,17,23.985z"/>
		</g>
	</g>
</g>
</svg>
