<?xml version="1.0" encoding="utf-8"?>
<!-- Generator: Adobe Illustrator 26.3.1, SVG Export Plug-In . SVG Version: 6.00 Build 0)  -->
<svg version="1.1" id="Layer_1" xmlns="http://www.w3.org/2000/svg" xmlns:xlink="http://www.w3.org/1999/xlink" x="0px" y="0px"
	 viewBox="0 0 48 48" enable-background="new 0 0 48 48" xml:space="preserve">
<g id="guide" display="none">
	<g id="Layer_8" display="inline">
		<g id="guides">
			<rect fill="#CEE4EA" width="48" height="48"/>
			<rect x="2" y="2" fill="#E9F2F4" width="44" height="44"/>
			<rect x="4" y="4" fill="#FFFFFF" width="40" height="40"/>
		</g>
	</g>
</g>
<g id="User">
	<g>
		<path fill-rule="evenodd" clip-rule="evenodd" fill="#034EA2" d="M24,4c11.046,0,20,8.954,20,20s-8.954,20-20,20S4,35.046,4,24
			S12.954,4,24,4z"/>
	</g>
</g>
<g id="Layer_5">
</g>
<g id="Layer_4">
	<g>
		<g>
			<path fill="#FFFFFF" d="M28.988,27.282c-0.78-0.782-2.046-0.784-2.829-0.006c-0.001,0.002-0.003,0.004-0.005,0.006l-0.967,0.966
				c-1.088-0.69-2.097-1.499-3.006-2.413c-0.911-0.911-1.721-1.918-2.414-3.005l0.967-0.966c0.783-0.779,0.785-2.045,0.006-2.827
				c-0.002-0.002-0.004-0.004-0.006-0.005l-1.887-1.879c-0.37-0.378-0.878-0.59-1.407-0.586c-0.533-0.001-1.044,0.21-1.421,0.586
				l-0.906,0.9c-0.876,0.94-1.277,2.227-1.093,3.498c0.213,2.499,1.854,5.504,4.38,8.037c2.526,2.532,5.566,4.164,8.066,4.404
				c0.187,0.01,0.373,0.01,0.56,0c1.087,0.046,2.146-0.349,2.94-1.093l0.9-0.906c0.377-0.376,0.588-0.887,0.586-1.42
				c0.003-0.529-0.208-1.036-0.586-1.407L28.988,27.282z M29.928,31.053l-0.907,0.9c-0.678,0.565-1.568,0.808-2.44,0.667
				c-2.167-0.187-4.927-1.719-7.206-3.998c-2.279-2.279-3.813-5.018-4.02-7.184c-0.146-0.871,0.098-1.763,0.667-2.439l0.94-0.907
				c0.126-0.125,0.296-0.194,0.474-0.193c0.177-0.001,0.347,0.068,0.474,0.193l1.887,1.905c0.258,0.26,0.258,0.68,0,0.94
				l-1.333,1.332c-0.215,0.214-0.258,0.545-0.107,0.806c0.798,1.359,1.768,2.608,2.887,3.718c1.11,1.118,2.361,2.087,3.72,2.885
				c0.262,0.152,0.593,0.108,0.806-0.107l1.333-1.332c0.26-0.258,0.68-0.258,0.94,0l1.887,1.886
				c0.125,0.126,0.194,0.296,0.193,0.474C30.117,30.77,30.048,30.932,29.928,31.053z M31.088,16.926
				c-1.872-1.877-4.415-2.93-7.066-2.926c-0.369,0-0.667,0.298-0.667,0.667s0.298,0.667,0.667,0.667
				c4.786,0,8.666,3.878,8.667,8.662c0,0.024,0,0.049,0,0.073c0,0.369,0.298,0.667,0.667,0.667s0.667-0.298,0.667-0.667
				C34.046,21.39,32.989,18.815,31.088,16.926z M27.294,20.738c0.764,0.76,1.19,1.795,1.181,2.872c0,0.369,0.298,0.667,0.667,0.667
				s0.667-0.298,0.667-0.667c0.037-2.944-2.321-5.36-5.266-5.397c-0.023,0-0.045,0-0.067,0c-0.369,0-0.667,0.298-0.667,0.667
				c0,0.368,0.298,0.667,0.667,0.667C25.536,19.553,26.551,19.982,27.294,20.738z"/>
		</g>
	</g>
</g>
</svg>
